<?xml version="1.0" encoding="UTF-8"?>
<svg id="Layer_1" xmlns="http://www.w3.org/2000/svg" version="1.1" viewBox="0 0 1920 1080">
  <!-- Generator: Adobe Illustrator 29.4.0, SVG Export Plug-In . SVG Version: 2.1.0 Build 152)  -->
  <defs>
    <style>
      .st0 {
        fill: #fff;
      }

      .st1 {
        fill: #be6cff;
      }
    </style>
  </defs>
  <path class="st0" d="M514.63,500.64c0,3.86,2.18,5.79,4.83,5.79,1.2,0,2.66-.24,3.86-1.21l69.79-49.75h49.99l-99.97,71.49c-6.76,4.83-17.63,9.9-27.05,9.9-21.01,0-32.84-15.7-32.84-35.26v-46.13h31.39v45.16ZM483.24,577.91c0-17.39,9.66-35.26,32.84-35.26,9.42,0,20.29,5.07,27.05,9.9l100.7,71.96h-49.75l-70.99-50.47c-1.21-.97-2.66-1.21-3.86-1.21-2.42,0-4.59,1.93-4.59,5.79v45.88h-31.39v-46.61Z"/>
  <path class="st0" d="M623.16,540c0-51.92,35.98-87.9,87.9-87.9s87.9,35.98,87.9,87.9-35.98,87.91-87.9,87.91-87.9-35.99-87.9-87.91M767.57,540c0-36.22-21.98-58.92-56.51-58.92s-56.51,22.7-56.51,58.92,21.98,58.93,56.51,58.93,56.51-22.7,56.51-58.93"/>
  <path class="st0" d="M808.63,484.46v-28.98h164.93v28.98h-55.54c-6.76,0-11.35,4.59-11.35,11.35v128.72h-31.4v-128.72c0-6.76-4.59-11.35-11.35-11.35h-55.3Z"/>
  <path class="st0" d="M1029.6,624.52c-21.01,0-36.7-13.04-36.7-33.57,0-18.59,12.8-29.95,30.67-32.84l77.76-13.04c5.79-.97,5.55-8.7,0-9.66l-78-13.04c-17.87-2.89-30.42-15.69-30.42-34.29,0-20.52,15.45-32.6,36.94-32.6h118.57v28.98h-118.57c-7.97,0-8.21,8.22-2.18,9.18l79.45,13.28c19.56,3.38,28.74,15.7,28.74,33.57s-9.66,29.94-28.74,33.08l-79.21,13.28c-5.07.97-5.07,8.69,1.69,8.69h118.81v28.98h-118.81Z"/>
  <path class="st0" d="M1244.29,484.46c-27.29,0-45.16,21.74-45.16,54.82s19.08,56.26,48.78,56.26h86.21v28.98h-86.21c-48.05,0-80.17-34.05-80.17-84.76s31.15-84.28,76.55-84.28h14.25c11.11,0,19.56,4.35,25.12,15.22l14.25,27.28c1.21,2.42,4.83,1.93,4.83-.48l-.24-42.02h31.4l.23,39.12c.25,19.57-12.07,33.57-32.36,33.57-17.14,0-26.8-10.14-32.84-21.49l-11.59-22.22h-13.04Z"/>
  <path class="st0" d="M1394.74,509.57c0,10.63,5.31,14.73,12.55,14.73h75.59c7.24,0,12.55-4.1,12.55-14.73v-54.09h31.4v56.51c0,11.59-2.42,22.21-12.56,28.01,10.14,5.8,12.56,16.42,12.56,28.02v56.51h-31.4v-54.09c0-10.63-5.31-14.73-12.55-14.73h-75.59c-7.24,0-12.55,4.1-12.55,14.73v54.09h-31.4v-56.51c0-11.59,2.42-22.21,12.56-28.02-10.14-5.79-12.56-16.41-12.56-28.01v-56.51h31.4v54.09Z"/>
  <path class="st1" d="M433.01,575.12c1.21-.97,2.66-1.21,3.86-1.21,2.66,0,4.83,1.93,4.83,5.79v45.16h31.39v-46.13c0-19.56-11.83-35.25-32.84-35.25-9.42,0-20.29,5.07-27.05,9.9l-20.04,14.33v35.81l39.85-28.4Z"/>
  <path class="st1" d="M413.21,527.79c6.76,4.83,17.63,9.9,27.05,9.9,23.18,0,32.84-17.87,32.84-35.26v-46.61h-31.39v45.89c0,3.86-2.18,5.79-4.59,5.79-1.2,0-2.65-.24-3.86-1.21l-40.09-28.5v35.67l20.04,14.32Z"/>
</svg>